<svg xmlns="http://www.w3.org/2000/svg" viewBox="0 0 1024 1024">

  <g fill="#ffffff">
    <circle cx="234" cy="509" r="76"/>

    <path d="M378 455
             C349 437 344 399 365 372
             L552 132
             C606 63 708 54 775 111
             C848 173 852 286 784 353
             C763 374 738 391 711 405
             L428 463
             C412 471 393 465 378 455Z"/>

    <path d="M378 570
             C349 588 344 626 365 653
             L552 892
             C606 962 708 971 775 914
             C848 852 852 739 784 672
             C763 651 738 634 711 620
             L428 562
             C412 554 393 560 378 570Z"/>
  </g>
</svg>
