<svg xmlns="http://www.w3.org/2000/svg" width="16" height="16"><defs><mask id="main-mask"><rect width="16" height="16" fill="#fff"/><path d="M7.5 5 8.5 5 11 10 10.5 11 5.5 11 5 10Z" fill="#000"/></mask></defs><path d="M.59 12.6.6 11.31 1.59 11.14 2.17 10.2 1.46 9.29 2.15 8.22 3.13 8.45 3.96 7.14 3.19 6.23 3.98 5.03 5.05 5.29 5.76 4.17 5.1 3.27 5.78 2.21 6.82 2.61 7.44 1.09 8.61 1.08 9.24 2.59 10.28 2.25 10.96 3.31 10.3 4.13 11 5.33 12.04 5.04 12.86 6.21 12.09 7.12 12.93 8.49 13.92 8.22 14.61 9.35 13.92 10.16 14.43 11.14 15.45 11.31 15.49 12.68 14.58 13.48 13.1 13.5 12.75 14.45 11.51 14.45 11.09 13.48 9.35 13.44 8.75 14.41 7.31 14.47 6.81 13.52 4.97 13.48 4.6 14.45 3.38 14.47 3.03 13.46 1.55 13.48Z" mask="url(#main-mask)" fill="#fff"/></svg>