<svg xmlns="http://www.w3.org/2000/svg" viewBox="0 0 257 320" width="257" height="320" role="img" aria-label="Splinter icon">
  <path d="M 237 157 L 236 156 L 227 162 L 225 161 L 222 164 L 220 163 L 217 166 L 215 165 L 181 180 L 178 183 L 177 182 L 161 189 L 158 192 L 157 191 L 152 195 L 151 194 L 143 198 L 142 200 L 141 199 L 128 205 L 124 209 L 123 208 L 98 221 L 69 243 L 58 254 L 55 253 L 56 254 L 50 261 L 49 260 L 46 262 L 46 264 L 49 260 L 50 262 L 61 260 L 62 258 L 65 259 L 73 257 L 74 255 L 76 256 L 77 254 L 81 255 L 88 253 L 89 251 L 92 252 L 131 242 L 132 240 L 144 240 L 144 238 L 215 219 L 226 189 L 226 183 L 228 182 L 232 171 L 231 169 L 233 168 Z M 226 149 L 224 150 L 223 148 L 222 149 L 215 144 L 213 145 L 206 140 L 192 134 L 190 135 L 189 133 L 188 134 L 179 128 L 177 129 L 176 127 L 175 128 L 174 126 L 154 117 L 152 118 L 152 116 L 119 101 L 113 100 L 112 98 L 110 99 L 110 97 L 99 97 L 99 99 L 91 104 L 88 102 L 88 104 L 80 107 L 80 109 L 77 108 L 68 112 L 68 114 L 66 113 L 66 115 L 63 114 L 60 117 L 58 116 L 55 119 L 53 118 L 45 123 L 44 122 L 43 124 L 37 125 L 36 127 L 34 126 L 31 129 L 28 129 L 28 131 L 26 130 L 23 132 L 30 136 L 29 137 L 31 136 L 41 142 L 42 141 L 44 144 L 47 144 L 49 147 L 52 147 L 59 153 L 64 154 L 66 157 L 67 156 L 73 161 L 72 162 L 74 161 L 90 171 L 95 172 L 97 175 L 100 175 L 102 178 L 113 184 L 114 183 L 116 186 L 132 195 L 130 197 L 23 196 L 24 197 L 17 216 L 18 218 L 16 219 L 6 251 L 11 247 L 17 247 L 53 234 L 56 235 L 56 233 L 84 222 L 124 200 L 133 197 L 133 194 L 159 182 L 160 180 L 166 179 L 214 158 L 225 151 L 226 152 Z M 167 144 L 143 157 L 139 161 L 138 160 L 137 162 L 136 161 L 129 165 L 128 152 L 125 150 L 127 152 L 126 153 L 87 153 L 86 151 L 90 150 L 86 149 L 86 135 L 125 134 L 127 136 L 128 124 L 130 123 L 157 138 L 157 140 L 161 139 L 164 142 L 163 144 L 164 142 Z M 245 28 L 228 33 L 227 35 L 224 34 L 223 36 L 220 35 L 219 37 L 211 37 L 196 41 L 195 43 L 188 43 L 187 45 L 183 44 L 127 78 L 124 76 L 138 65 L 139 66 L 139 64 L 142 64 L 141 63 L 198 19 L 198 17 L 188 20 L 188 22 L 184 21 L 174 24 L 174 26 L 171 25 L 164 29 L 162 28 L 161 30 L 156 30 L 155 32 L 152 30 L 152 33 L 150 32 L 146 35 L 140 35 L 136 38 L 133 37 L 130 40 L 127 39 L 124 40 L 124 42 L 121 41 L 115 43 L 114 45 L 111 44 L 104 46 L 101 49 L 98 48 L 92 50 L 91 52 L 89 51 L 88 53 L 85 52 L 66 58 L 65 60 L 63 59 L 62 61 L 55 61 L 56 62 L 52 62 L 52 64 L 48 62 L 48 65 L 46 64 L 38 68 L 38 74 L 36 75 L 19 124 L 26 122 L 33 117 L 35 118 L 61 108 L 62 106 L 64 107 L 69 105 L 72 102 L 74 103 L 75 101 L 77 102 L 78 100 L 87 98 L 90 95 L 95 95 L 102 90 L 224 90 L 223 88 L 226 86 L 235 60 L 234 57 L 238 51 L 237 49 L 239 48 Z" fill="#7ecb7e" fill-rule="evenodd"/>
</svg>